<svg width="33" height="33" viewBox="0 0 33 33" fill="none" xmlns="http://www.w3.org/2000/svg">
<circle cx="16.5" cy="16.5" r="16" stroke="#119C51" stroke-opacity="0.65"/>
<g clip-path="url(#clip0)">
<path d="M14.8017 12.4439V9.57128C14.8016 9.25567 14.5654 8.9999 14.274 9C14.1246 9.00003 13.9823 9.06874 13.8823 9.18897L9.13501 14.9033C8.9614 15.1128 8.95445 15.428 9.11866 15.6462L13.866 21.932C14.0504 22.1762 14.3827 22.2122 14.6082 22.0124C14.7304 21.9042 14.8014 21.7423 14.8017 21.5714V18.7239C18.9688 18.8708 21.5692 20.8005 22.7413 24.6097C22.8132 24.8427 23.0145 24.9999 23.2413 25C23.2698 25.0001 23.2982 24.9976 23.3263 24.9925C23.5814 24.9474 23.7688 24.7087 23.7688 24.4285C23.7688 17.6993 20.0295 12.7559 14.8017 12.4439Z" fill="#119C51"/>
</g>
<defs>
<clipPath id="clip0">
<rect width="14.7692" height="16" fill="white" transform="translate(9 9)"/>
</clipPath>
</defs>
</svg>
