<svg width="48" height="48" viewBox="0 0 48 48" fill="none" xmlns="http://www.w3.org/2000/svg">
<path d="M8.8125 33.4061H0.9375C0.419678 33.4061 0 33.8258 0 34.3436V45.1875C0 45.7053 0.419678 46.125 0.9375 46.125H8.8125C9.33032 46.125 9.75 45.7053 9.75 45.1875V34.3436C9.75 33.8262 9.33032 33.4061 8.8125 33.4061ZM7.875 44.25H1.875V35.2811H7.875V44.25Z" fill="#119C51"/>
<path d="M21.5312 21.75H13.6562C13.1384 21.75 12.7188 22.1697 12.7188 22.6875V45.1875C12.7188 45.7053 13.1384 46.125 13.6562 46.125H21.5312C22.0491 46.125 22.4688 45.7053 22.4688 45.1875V22.6875C22.4688 22.1697 22.0487 21.75 21.5312 21.75ZM20.5938 44.25H14.5938V23.625H20.5938V44.25Z" fill="#119C51"/>
<path d="M34.3071 24.75H26.4321C25.9147 24.75 25.4946 25.1697 25.4946 25.6875V45.1875C25.4946 45.7053 25.9147 46.125 26.4321 46.125H34.3071C34.8249 46.125 35.2446 45.7053 35.2446 45.1875V25.6875C35.2446 25.1697 34.8249 24.75 34.3071 24.75ZM33.3696 44.25H27.3696V26.625H33.3696V44.25Z" fill="#119C51"/>
<path d="M4.875 29.8125C7.04626 29.8125 8.8125 28.0463 8.8125 25.875C8.8125 25.1898 8.63599 24.5449 8.3269 23.9832L15.4091 17.4928C16.0345 17.9114 16.786 18.1564 17.5939 18.1564C19.1221 18.1564 20.4485 17.2808 21.1007 16.0052L26.4331 17.2573C26.454 19.411 28.2114 21.1564 30.3699 21.1564C32.5408 21.1564 34.3074 19.3901 34.3074 17.2189C34.3074 16.5505 34.1393 15.921 33.8445 15.3691L40.9006 9.05933C41.5338 9.49438 42.2999 9.75 43.125 9.75C45.2963 9.75 47.0625 7.98376 47.0625 5.8125C47.0625 3.64124 45.2963 1.875 43.125 1.875C40.9537 1.875 39.1875 3.64124 39.1875 5.8125C39.1875 6.48083 39.3552 7.11035 39.6504 7.66223L32.5939 13.972C31.9607 13.5366 31.1946 13.2814 30.3695 13.2814C28.8417 13.2814 27.5149 14.157 26.8627 15.4321L21.5303 14.1801C21.5094 12.0267 19.752 10.2814 17.5935 10.2814C15.4226 10.2814 13.656 12.0476 13.656 14.2189C13.656 14.9041 13.8325 15.549 14.1416 16.1107L7.05981 22.6011C6.43433 22.1821 5.68286 21.9375 4.875 21.9375C2.70374 21.9375 0.9375 23.7037 0.9375 25.875C0.9375 28.0463 2.70374 29.8125 4.875 29.8125ZM43.125 3.75C44.2625 3.75 45.1875 4.67505 45.1875 5.8125C45.1875 6.94995 44.2625 7.875 43.125 7.875C41.9875 7.875 41.0625 6.94995 41.0625 5.8125C41.0625 4.67505 41.9875 3.75 43.125 3.75ZM30.3695 15.1564C31.507 15.1564 32.432 16.0814 32.432 17.2189C32.432 18.356 31.507 19.2814 30.3695 19.2814C29.2324 19.2814 28.307 18.356 28.307 17.2189C28.307 16.0814 29.2324 15.1564 30.3695 15.1564ZM17.5939 12.1564C18.731 12.1564 19.6564 13.0814 19.6564 14.2189C19.6564 15.356 18.731 16.2814 17.5939 16.2814C16.4564 16.2814 15.5314 15.356 15.5314 14.2189C15.5314 13.0814 16.4564 12.1564 17.5939 12.1564ZM4.875 23.8125C6.01245 23.8125 6.9375 24.7375 6.9375 25.875C6.9375 27.0125 6.01245 27.9375 4.875 27.9375C3.73755 27.9375 2.8125 27.0125 2.8125 25.875C2.8125 24.7375 3.73755 23.8125 4.875 23.8125Z" fill="#119C51"/>
<path d="M47.0625 13.3436H39.1875C38.6697 13.3436 38.25 13.7633 38.25 14.2811V25.5154C38.25 26.0332 38.6697 26.4529 39.1875 26.4529C39.7053 26.4529 40.125 26.0332 40.125 25.5154V15.2186H46.125V44.25H40.125V33.9532C40.125 33.4354 39.7053 33.0157 39.1875 33.0157C38.6697 33.0157 38.25 33.4354 38.25 33.9532V45.1875C38.25 45.7053 38.6697 46.125 39.1875 46.125H47.0625C47.5803 46.125 48 45.7053 48 45.1875V14.2811C48 13.7637 47.5803 13.3436 47.0625 13.3436Z" fill="#119C51"/>
<path d="M39.1875 30.6724C39.434 30.6724 39.676 30.572 39.8503 30.3973C40.0247 30.223 40.125 29.9813 40.125 29.7349C40.125 29.4873 40.0247 29.2463 39.8503 29.072C39.676 28.8966 39.434 28.7974 39.1875 28.7974C38.941 28.7974 38.699 28.8966 38.5247 29.072C38.3503 29.2463 38.25 29.4873 38.25 29.7349C38.25 29.9813 38.3503 30.223 38.5247 30.3973C38.699 30.572 38.941 30.6724 39.1875 30.6724Z" fill="#119C51"/>
</svg>
