<svg width="46" height="46" viewBox="0 0 46 46" fill="none" xmlns="http://www.w3.org/2000/svg">
<path d="M40.5623 24.1568C39.3887 22.328 37.7352 20.8646 35.7807 19.9251C35.3333 19.71 34.7965 19.8983 34.5816 20.3455C34.3666 20.7928 34.5548 21.3295 35.0021 21.5445C38.4081 23.1818 40.6088 26.6802 40.6088 30.4571C40.6088 32.0732 40.2105 33.6759 39.457 35.0922C39.2239 35.5302 39.39 36.0743 39.8281 36.3073C39.9625 36.3788 40.107 36.4128 40.2493 36.4128C40.5708 36.4128 40.8817 36.2398 41.0432 35.9362C41.9346 34.2611 42.4057 32.3664 42.4057 30.4571C42.4057 28.2146 41.7683 26.0359 40.5623 24.1568Z" fill="#119C51"/>
<path d="M32.1347 18.7775L32.0742 18.7774C31.5781 18.7774 31.1758 19.1796 31.1758 19.6758C31.1758 20.172 31.5781 20.5743 32.0742 20.5743L32.1262 20.5744C32.1277 20.5744 32.129 20.5744 32.1306 20.5744C32.6248 20.5744 33.0266 20.1749 33.0289 19.6802C33.0311 19.1839 32.6308 18.7798 32.1347 18.7775Z" fill="#119C51"/>
<path d="M26.4509 39.3697C23.045 37.7323 20.8442 34.2338 20.8442 30.4571C20.8442 28.841 21.2426 27.2383 21.9961 25.822C22.2292 25.384 22.0631 24.8399 21.625 24.6068C21.1871 24.3738 20.6428 24.5399 20.4098 24.978C19.5185 26.6531 19.0474 28.5477 19.0474 30.4571C19.0474 32.6996 19.6848 34.8781 20.8908 36.7574C22.0644 38.5861 23.7179 40.0495 25.6724 40.9892C25.7979 41.0496 25.9305 41.078 26.0611 41.078C26.3957 41.078 26.7168 40.8904 26.8715 40.5687C27.0863 40.1215 26.8982 39.5847 26.4509 39.3697Z" fill="#119C51"/>
<path d="M29.3788 40.3398L29.3268 40.3397C28.8284 40.3388 28.4266 40.7376 28.4243 41.2339C28.422 41.7301 28.8225 42.1342 29.3186 42.1365L29.3788 42.1367C29.8749 42.1367 30.2773 41.7344 30.2773 41.2383C30.2773 40.7422 29.8749 40.3398 29.3788 40.3398Z" fill="#119C51"/>
<path d="M34.8062 15.7377C34.6969 15.4772 34.5629 15.2316 34.407 15.0039H36.746C39.0248 15.0039 40.8788 13.1499 40.8788 10.8711C40.8788 8.59228 39.0248 6.73827 36.746 6.73827H29.5514C30.0087 6.07325 30.2773 5.2687 30.2773 4.40234C30.2773 2.12354 28.4233 0.269531 26.1445 0.269531H4.1328C1.85401 0.269531 0 2.12354 0 4.40234C0 6.68113 1.85401 8.53514 4.1328 8.53514H11.3275C10.8701 9.20016 10.6015 10.0047 10.6015 10.8711C10.6015 11.7374 10.87 12.542 11.3275 13.207H8.98436C6.70557 13.207 4.85155 15.061 4.85155 17.3398C4.85155 18.6486 5.46375 19.8164 6.41618 20.5742C5.46375 21.3319 4.85155 22.4998 4.85155 23.8085C4.85155 25.1173 5.46375 26.2852 6.41618 27.0429C5.46375 27.8007 4.85155 28.9685 4.85155 30.2773C4.85155 31.586 5.46375 32.7539 6.41618 33.5117C5.46375 34.2694 4.85155 35.4373 4.85155 36.746C4.85155 39.0248 6.70557 40.8788 8.98436 40.8788H19.5724C22.3617 43.8623 26.3297 45.7305 30.7266 45.7305C39.1483 45.7305 46 38.8788 46 30.4571C46 23.4477 41.2536 17.527 34.8062 15.7377ZM36.746 8.53514C38.0341 8.53514 39.082 9.58308 39.082 10.8711C39.082 12.1591 38.0341 13.207 36.746 13.207H30.996H14.7343C13.4463 13.207 12.3984 12.1591 12.3984 10.8711C12.3984 9.58308 13.4463 8.53514 14.7343 8.53514H36.746ZM4.1328 6.73827C2.84472 6.73827 1.79687 5.69033 1.79687 4.40234C1.79687 3.11434 2.84472 2.0664 4.1328 2.0664H26.1445C27.4326 2.0664 28.4804 3.11434 28.4804 4.40234C28.4804 5.69033 27.4326 6.73827 26.1445 6.73827H4.1328ZM8.98436 15.0039H30.996C31.3579 15.0039 31.7045 15.088 32.0153 15.2385C31.5903 15.2029 31.1607 15.1837 30.7266 15.1837C26.5089 15.1837 22.6851 16.9023 19.9185 19.6757H8.98436C7.69636 19.6757 6.64842 18.6278 6.64842 17.3398C6.64842 16.0518 7.69636 15.0039 8.98436 15.0039ZM8.98436 21.4726H18.3833C17.3634 22.87 16.5749 24.446 16.0741 26.1445H8.98436C7.69627 26.1445 6.64842 25.0966 6.64842 23.8085C6.64842 22.5206 7.69627 21.4726 8.98436 21.4726ZM8.98436 27.9414H15.6615C15.5252 28.7601 15.4532 29.6002 15.4532 30.4571C15.4532 31.1889 15.5061 31.9086 15.6061 32.6132H8.98436C7.69627 32.6132 6.64842 31.5654 6.64842 30.2773C6.64842 28.9892 7.69627 27.9414 8.98436 27.9414ZM8.98436 39.082C7.69627 39.082 6.64842 38.0341 6.64842 36.746C6.64842 35.4579 7.69627 34.4101 8.98436 34.4101H15.9729C16.4263 36.1003 17.1627 37.6755 18.1285 39.082H8.98436ZM30.7266 43.9336C23.2956 43.9336 17.2501 37.888 17.2501 30.4571C17.2501 23.0261 23.2956 16.9805 30.7266 16.9805C38.1576 16.9805 44.2031 23.0261 44.2031 30.4571C44.2031 37.888 38.1576 43.9336 30.7266 43.9336Z" fill="#119C51"/>
<path d="M28.6716 36C28.5783 36 28.4989 35.9673 28.4336 35.902C28.3683 35.8367 28.3356 35.7573 28.3356 35.664V34.124H27.2716C27.1783 34.124 27.0989 34.0913 27.0336 34.026C26.9683 33.9607 26.9356 33.8813 26.9356 33.788V33.354C26.9356 33.2607 26.9683 33.1813 27.0336 33.116C27.0989 33.0507 27.1783 33.018 27.2716 33.018H28.3356V32.262H27.2716C27.1783 32.262 27.0989 32.2293 27.0336 32.164C26.9683 32.0987 26.9356 32.0193 26.9356 31.926V31.17C26.9356 31.0673 26.9683 30.988 27.0336 30.932C27.0989 30.8667 27.1783 30.834 27.2716 30.834H28.3356V26.55C28.3356 26.4473 28.3636 26.3633 28.4196 26.298C28.4849 26.2327 28.5689 26.2 28.6716 26.2H32.4096C33.5389 26.2 34.4256 26.466 35.0696 26.998C35.7136 27.5207 36.0356 28.2907 36.0356 29.308C36.0356 30.288 35.7136 31.0253 35.0696 31.52C34.4256 32.0147 33.5389 32.262 32.4096 32.262H30.3376V33.018H32.6196C32.7129 33.018 32.7923 33.0507 32.8576 33.116C32.9229 33.1813 32.9556 33.2607 32.9556 33.354V33.788C32.9556 33.8813 32.9229 33.9607 32.8576 34.026C32.8016 34.0913 32.7223 34.124 32.6196 34.124H30.3376V35.664C30.3376 35.7573 30.3049 35.8367 30.2396 35.902C30.1743 35.9673 30.0903 36 29.9876 36H28.6716ZM32.3396 30.834C32.8809 30.834 33.2963 30.708 33.5856 30.456C33.8843 30.1947 34.0336 29.812 34.0336 29.308C34.0336 28.8227 33.8936 28.4447 33.6136 28.174C33.3336 27.894 32.9089 27.754 32.3396 27.754H30.3096V30.834H32.3396Z" fill="#119C51"/>
</svg>
