<svg width="26" height="26" viewBox="0 0 26 26" fill="none" xmlns="http://www.w3.org/2000/svg">
<path d="M15.4631 16.1769L16.9465 11.6238L13.0701 8.80859L9.19922 11.6238L10.6772 16.1769H15.4631Z" fill="#119C51"/>
<path d="M3.54664 10.0425L2.70749 5.04004C1.18464 7.00676 0.26333 9.37208 0.0546875 11.8507L3.54664 10.0425Z" fill="#119C51"/>
<path d="M23.395 5.20312L22.5938 10.0431L25.9287 11.7702C25.7086 9.38875 24.8314 7.11525 23.395 5.20312Z" fill="#119C51"/>
<path d="M9.80997 16.7824L8.2995 12.1373L4.24992 10.8271L0.070405 12.9927H2.45943e-05C-0.00460138 15.3652 0.643436 17.6933 1.87323 19.7222C1.96144 19.6703 2.06372 19.6476 2.16558 19.6572L7.44952 20.0253L9.80997 16.7824Z" fill="#119C51"/>
<path d="M13.5742 3.87527V7.93026L17.8349 11.0216C17.8349 11.0216 17.8349 11.0487 17.8728 11.0595L21.603 9.84678L22.4367 4.79563L22.5071 4.2001H22.5667C21.2178 2.73436 19.551 1.59722 17.6942 0.875977L13.5742 3.87527Z" fill="#119C51"/>
<path d="M3.63466 4.20186L3.71046 4.81904L4.53878 9.84854L8.27436 11.0612L8.30684 11.0234L12.5676 7.93202V3.87703L8.39346 0.839844C6.57191 1.53357 4.9291 2.62692 3.58594 4.03945C3.61343 4.08955 3.63003 4.1449 3.63466 4.20186Z" fill="#119C51"/>
<path d="M18.9063 21.0217L17.9102 25.0225C20.1192 24.1152 22.0355 22.6166 23.4486 20.6914L18.9063 21.0217Z" fill="#119C51"/>
<path d="M21.8921 10.8271L17.8696 12.1319L16.332 16.7824L18.6925 20.0307L23.9818 19.6626H24.1551C25.3616 17.6474 25.9961 15.3415 25.9904 12.9927V12.9386L21.8921 10.8271Z" fill="#119C51"/>
<path d="M7.23742 21.0217L2.52734 20.6914C3.9815 22.6677 5.96552 24.1918 8.24981 25.0875L7.23742 21.0217Z" fill="#119C51"/>
<path d="M17.9388 20.7139L15.378 17.1895H10.76L8.19922 20.7139L9.35779 25.3698V25.4727C11.7819 26.1856 14.3613 26.1762 16.7802 25.4456L17.9388 20.7139Z" fill="#119C51"/>
<path d="M13.0701 2.9938L16.5187 0.487171C14.2507 -0.151173 11.852 -0.162399 9.57812 0.454687L13.0701 2.9938Z" fill="#119C51"/>
</svg>
