<svg width="26" height="25" viewBox="0 0 26 25" fill="none" xmlns="http://www.w3.org/2000/svg">
<path d="M20.7172 3.04111C18.5858 1.18528 15.9755 0.171667 13.3217 0C13.8497 2.67945 13.4889 4.99889 12.2366 6.92945C12.2191 6.95584 12.2008 6.98139 12.1836 7.0075C12.9922 7.64806 13.8083 8.35445 14.625 9.13306L20.7172 3.04111Z" fill="#FF5F23"/>
<path d="M11.5347 0.0117188C9.14472 0.19783 6.79806 1.06755 4.8125 2.62116C6.62806 3.38033 8.66306 4.44755 10.7831 5.95394C11.8122 4.35311 12.0614 2.36394 11.5347 0.0117188Z" fill="#FF5F23"/>
<path d="M3.37712 3.93164C1.52045 5.91164 0.428785 8.34748 0.101562 10.8641C3.37129 10.4628 7.27768 9.51053 9.64796 7.29664C7.38351 5.70386 5.23101 4.64136 3.37712 3.93164Z" fill="#FF5F23"/>
<path d="M14.1328 24.8956C16.6503 24.5686 19.0873 23.477 21.0678 21.6197C20.3581 19.7656 19.2953 17.6134 17.7025 15.3486C15.4853 17.7197 14.5328 21.6261 14.1328 24.8956Z" fill="#FF5F23"/>
<path d="M17.9967 12.8126C18.023 12.7951 18.0483 12.7765 18.0747 12.7593C20.005 11.5071 22.3244 11.1465 25.0036 11.6749C24.8319 9.02069 23.8183 6.41069 21.9628 4.2793L15.8711 10.3712C16.65 11.1879 17.3561 12.004 17.9967 12.8126Z" fill="#FF5F23"/>
<path d="M19.0469 14.216C20.5535 16.3363 21.6208 18.3707 22.3797 20.1866C23.9335 18.201 24.8035 15.8544 24.9897 13.4641C22.6369 12.9377 20.648 13.1868 19.0469 14.216Z" fill="#FF5F23"/>
<path d="M14.6272 11.6123L4.30469 21.9351C6.60886 23.9415 9.47219 24.9631 12.3464 25.0009C12.7689 21.3176 13.868 16.7181 16.6397 13.929C16.0339 13.1623 15.3652 12.3881 14.6272 11.6123Z" fill="#FF5F23"/>
<path d="M11.0719 8.35938C8.28278 11.1316 3.68361 12.2308 0 12.653C0.0380556 15.5272 1.05945 18.3908 3.06583 20.6949L13.3886 10.3722C12.6131 9.6341 11.8386 8.96549 11.0719 8.35938Z" fill="#FF5F23"/>
</svg>
