<svg width="15" height="16" viewBox="0 0 15 16" fill="none" xmlns="http://www.w3.org/2000/svg">
<path d="M8.92429 9.33641L9.78044 6.70858L7.5432 5.08377L5.30908 6.70858L6.16211 9.33641H8.92429Z" fill="#119C51"/>
<path d="M2.04713 5.79617L1.56281 2.909C0.683894 4.0441 0.152157 5.40925 0.0317383 6.8398L2.04713 5.79617Z" fill="#119C51"/>
<path d="M13.5054 3.00269L13.043 5.79611L14.9677 6.79288C14.8407 5.41843 14.3345 4.10628 13.5054 3.00269Z" fill="#119C51"/>
<path d="M5.66187 9.68637L4.79009 7.00543L2.45286 6.24927L0.0406345 7.49912H1.41947e-05C-0.00265571 8.86842 0.371361 10.2121 1.08114 11.3831C1.13205 11.3532 1.19109 11.34 1.24987 11.3456L4.29952 11.558L5.66187 9.68637Z" fill="#119C51"/>
<path d="M7.8374 2.23716V4.57751L10.2965 6.36168C10.2965 6.36168 10.2965 6.37731 10.3184 6.38355L12.4712 5.68364L12.9524 2.76834L12.9931 2.42463H13.0274C12.2489 1.57868 11.2869 0.92237 10.2153 0.506104L7.8374 2.23716Z" fill="#119C51"/>
<path d="M2.09697 2.42466L2.14071 2.78086L2.61878 5.68366L4.77479 6.38358L4.79354 6.3617L7.25263 4.57753V2.23718L4.84353 0.484253C3.79221 0.884638 2.84406 1.51567 2.06885 2.33092C2.08471 2.35984 2.0943 2.39178 2.09697 2.42466Z" fill="#119C51"/>
<path d="M10.9094 12.1329L10.3345 14.442C11.6094 13.9184 12.7154 13.0535 13.531 11.9423L10.9094 12.1329Z" fill="#119C51"/>
<path d="M12.6328 6.24927L10.3112 7.00231L9.42383 9.68637L10.7862 11.5612L13.8389 11.3487H13.9389C14.6353 10.1856 15.0015 8.85473 14.9982 7.49912V7.46788L12.6328 6.24927Z" fill="#119C51"/>
<path d="M4.17889 12.1329L1.46045 11.9423C2.29972 13.0829 3.4448 13.9626 4.7632 14.4795L4.17889 12.1329Z" fill="#119C51"/>
<path d="M10.358 11.9548L8.88009 9.92068H6.21477L4.73682 11.9548L5.40549 14.642V14.7014C6.80459 15.1128 8.29331 15.1074 9.68937 14.6858L10.358 11.9548Z" fill="#119C51"/>
<path d="M7.54078 1.72788L9.53118 0.281172C8.22219 -0.0872501 6.83778 -0.0937294 5.52539 0.262425L7.54078 1.72788Z" fill="#119C51"/>
</svg>
