<svg width="16" height="15" viewBox="0 0 16 15" fill="none" xmlns="http://www.w3.org/2000/svg">
<path d="M12.4282 1.82448C11.1495 0.711093 9.58353 0.102989 7.99136 0C8.30816 1.6075 8.09168 2.99902 7.34042 4.15724C7.32992 4.17307 7.31893 4.1884 7.30859 4.20406C7.79371 4.58836 8.28333 5.01215 8.77328 5.47927L12.4282 1.82448Z" fill="#FF5F23"/>
<path d="M6.91817 0.00714111C5.48432 0.118796 4.07646 0.640576 2.88525 1.57265C3.97447 2.0281 5.19535 2.66837 6.46722 3.57211C7.08465 2.6117 7.23414 1.41833 6.91817 0.00714111Z" fill="#FF5F23"/>
<path d="M2.02617 2.35944C0.91228 3.54731 0.257348 5.00866 0.0610352 6.51851C2.02267 6.2777 4.36626 5.70642 5.78828 4.37823C4.42975 3.42266 3.13838 2.78523 2.02617 2.35944Z" fill="#FF5F23"/>
<path d="M8.47705 14.9363C9.98739 14.7401 11.4494 14.0852 12.6376 12.971C12.2118 11.8586 11.5742 10.5674 10.6187 9.20871C9.28847 10.6312 8.71703 12.9748 8.47705 14.9363Z" fill="#FF5F23"/>
<path d="M10.7982 7.68716C10.814 7.67666 10.8291 7.66549 10.845 7.65516C12.003 6.90391 13.3945 6.6876 15.0019 7.00456C14.8989 5.41223 14.2908 3.84639 13.1776 2.56769L9.52295 6.22248C9.99023 6.71243 10.4139 7.20204 10.7982 7.68716Z" fill="#FF5F23"/>
<path d="M11.4277 8.5291C12.3316 9.80114 12.9719 11.0217 13.4272 12.1111C14.3594 10.9199 14.8814 9.512 14.993 8.07798C13.5815 7.76218 12.3883 7.91166 11.4277 8.5291Z" fill="#FF5F23"/>
<path d="M8.77294 6.96613L2.58008 13.1592C3.96244 14.3629 5.68026 14.9758 7.40458 14.9985C7.65805 12.7887 8.31748 10.0293 9.98031 8.35598C9.61685 7.89603 9.21573 7.43158 8.77294 6.96613Z" fill="#FF5F23"/>
<path d="M6.64248 5.01526C4.96915 6.67842 2.20994 7.33785 0 7.59116C0.022831 9.31548 0.635601 11.0335 1.83931 12.4158L8.03234 6.2228C7.56705 5.78001 7.10243 5.37889 6.64248 5.01526Z" fill="#FF5F23"/>
</svg>
