<svg width="47" height="54" viewBox="0 0 47 54" fill="none" xmlns="http://www.w3.org/2000/svg">
<path d="M43.3432 5.26562H32.2897V3.45212C32.2897 2.10002 31.2365 1 29.942 1H17.1611C15.8665 1 14.8133 2.10002 14.8133 3.45212V5.26562H3.75998C2.23817 5.26562 1 6.55872 1 8.14827V33.5461C1 35.1356 2.23807 36.4288 3.75998 36.4288H10.9238V39.391C10.9238 40.7431 11.977 41.8433 13.2716 41.8433H18.9999V51.9844C18.9999 52.5452 19.4354 53 19.9723 53H27.1309C27.6679 53 28.1033 52.5452 28.1033 51.9844V41.8432H33.8317C35.1262 41.8432 36.1795 40.7431 36.1795 39.3909V36.4287H43.3433C44.8651 36.4287 46.1032 35.1356 46.1032 33.546V8.14827C46.1032 6.55872 44.8651 5.26562 43.3432 5.26562ZM16.7582 3.45212C16.7582 3.22005 16.9389 3.03125 17.1612 3.03125H29.9421C30.1643 3.03125 30.3451 3.21995 30.3451 3.45212V5.26562H16.7582V3.45212ZM26.1585 50.9688H20.9447V41.8432H26.1585V50.9688ZM34.2345 39.391C34.2345 39.6231 34.0539 39.812 33.8316 39.812H13.2715C13.0493 39.812 12.8685 39.6232 12.8685 39.391V36.4288H34.2345V39.391ZM44.1583 33.5461C44.1583 34.0155 43.7926 34.3975 43.3432 34.3975H3.75998C3.31054 34.3975 2.94481 34.0155 2.94481 33.5461V8.14827C2.94481 7.67885 3.31054 7.29688 3.75998 7.29688H43.3432C43.7926 7.29688 44.1583 7.67885 44.1583 8.14827V33.5461Z" fill="#119C51" stroke="white" stroke-width="0.2"/>
<path d="M21.3141 9.73438H6.25122C5.71425 9.73438 5.27881 10.1892 5.27881 10.75V30.9444C5.27881 31.5052 5.71425 31.96 6.25122 31.96H21.3141C21.8511 31.96 22.2865 31.5052 22.2865 30.9444V10.75C22.2865 10.1892 21.8512 9.73438 21.3141 9.73438ZM7.22362 11.7656H20.3417V14.9983H7.22362V11.7656ZM20.3417 29.9288H7.22362V17.0295H20.3417V29.9288Z" fill="#119C51" stroke="white" stroke-width="0.2"/>
<path d="M40.8527 27.2788C40.3157 27.2788 39.8803 27.7336 39.8803 28.2944V29.9288H26.7622V17.0295H39.8803V19.1119C39.8803 19.6728 40.3157 20.1276 40.8527 20.1276C41.3896 20.1276 41.8251 19.6728 41.8251 19.1119V10.75C41.8251 10.1892 41.3896 9.73438 40.8527 9.73438H25.7898C25.2528 9.73438 24.8174 10.1892 24.8174 10.75V30.9444C24.8174 31.5052 25.2528 31.96 25.7898 31.96H40.8527C41.3896 31.96 41.8251 31.5052 41.8251 30.9444V28.2944C41.8251 27.7336 41.3897 27.2788 40.8527 27.2788ZM26.7622 11.7656H39.8803V14.9983H26.7622V11.7656Z" fill="#119C51" stroke="white" stroke-width="0.2"/>
<path d="M41.7505 23.2961C41.599 22.916 41.2356 22.6664 40.8414 22.6695C40.4331 22.6728 40.064 22.9556 39.9321 23.3579C39.7952 23.7758 39.9423 24.2534 40.2863 24.5102C40.615 24.7557 41.0643 24.7606 41.3987 24.5249C41.7761 24.2588 41.9257 23.7348 41.7505 23.2961Z" fill="#119C51" stroke="white" stroke-width="0.2"/>
<path d="M12.47 21.1861H12.8102V26.5844C12.8102 27.1453 13.2457 27.6001 13.7826 27.6001C14.3196 27.6001 14.755 27.1453 14.755 26.5844V20.1705C14.755 19.6096 14.3196 19.1548 13.7826 19.1548H12.47C11.933 19.1548 11.4976 19.6096 11.4976 20.1705C11.4976 20.7313 11.933 21.1861 12.47 21.1861Z" fill="#119C51" stroke="white" stroke-width="0.2"/>
<path d="M33.2684 22.8072C32.299 24.2536 31.7209 25.0443 31.4103 25.4692C31.0069 26.0207 30.7636 26.3536 30.924 26.8986C31.0189 27.2209 31.261 27.4777 31.5715 27.5859C31.7004 27.6308 31.7977 27.6647 33.0194 27.6647C33.4943 27.6647 34.1388 27.6595 35.0209 27.6479C35.5578 27.6409 35.9876 27.1805 35.9809 26.6196C35.9743 26.0632 35.5402 25.6168 35.0089 25.6168C35.0047 25.6168 35.0005 25.6168 34.9964 25.6169C34.5758 25.6225 34.136 25.6268 33.7264 25.6292C34.0275 25.2008 34.4018 24.6582 34.8618 23.9719C35.2746 23.3557 35.5448 22.7685 35.6652 22.2265C35.6726 22.1933 35.6784 22.1598 35.6825 22.126L35.7129 21.8779C35.7182 21.8351 35.7208 21.7921 35.7208 21.749C35.7208 20.2841 34.5797 19.0922 33.177 19.0922C31.9641 19.0922 30.9144 19.9935 30.681 21.2353C30.5775 21.7858 30.9209 22.3196 31.4478 22.4275C31.9749 22.5355 32.4859 22.177 32.5893 21.6266C32.6441 21.335 32.8913 21.1235 33.177 21.1235C33.4913 21.1235 33.7499 21.3776 33.7741 21.6995L33.7605 21.8105C33.7088 22.0129 33.5809 22.3406 33.2684 22.8072Z" fill="#119C51" stroke="white" stroke-width="0.2"/>
</svg>
