<svg width="48" height="48" viewBox="0 0 48 48" fill="none" xmlns="http://www.w3.org/2000/svg">
<g clip-path="url(#clip0)">
<path d="M45.5228 27.5262C46.754 25.4106 47.574 23.0281 47.8728 20.488C47.8739 20.48 47.8746 20.4719 47.8757 20.4639C47.957 19.7644 48.0002 19.0532 48.0002 18.3322C48.0002 13.5707 46.175 9.22778 43.1882 5.96521C43.1406 5.89856 43.0846 5.83777 43.0209 5.7854C41.0807 3.7218 38.6696 2.10571 35.96 1.11255C35.9113 1.09058 35.8607 1.07227 35.8091 1.05908C33.8883 0.374268 31.8214 0 29.6681 0C27.2665 0 24.9714 0.465088 22.8676 1.30847C22.8104 1.32568 22.7555 1.34839 22.7024 1.37622C20.1155 2.44263 17.8245 4.08472 15.989 6.14172C15.929 6.19482 15.8755 6.25452 15.8304 6.32043C13.0322 9.54016 11.3359 13.7417 11.3359 18.3322C11.3359 19.0203 11.3755 19.6996 11.4498 20.3683C11.4506 20.3767 11.4517 20.3848 11.4528 20.3928C11.589 21.6064 11.8442 22.7842 12.2064 23.9147L2.35864 33.7625C1.99243 34.1287 1.99243 34.7223 2.35864 35.0885C2.54175 35.2716 2.78162 35.3632 3.02148 35.3632C3.26135 35.3632 3.50122 35.2716 3.68433 35.0885L12.9414 25.8318C13.1992 26.4042 13.4856 26.9615 13.7987 27.501C13.8273 27.5654 13.8635 27.6259 13.9056 27.6819C16.2296 31.5846 19.9606 34.5553 24.3939 35.8898L17.7897 42.4937C17.4238 42.8599 17.4238 43.4535 17.7897 43.8197C17.9728 44.0028 18.213 44.0944 18.4529 44.0944C18.6927 44.0944 18.9326 44.0028 19.1157 43.8197L26.5392 36.3959C27.5565 36.5717 28.6017 36.6643 29.6681 36.6643C36.3459 36.6643 42.2006 33.0743 45.4056 27.7236C45.4525 27.6628 45.4921 27.5969 45.5228 27.5262ZM37.4113 27.5632L34.0758 22.4304L35.8494 16.972L40.0648 16.0254L41.1616 15.7793L45.9542 20.7008C45.6631 22.712 45.0068 24.6068 44.0547 26.3156L37.4113 27.5632ZM25.2607 22.4304L21.9268 27.5607L15.2628 26.2819C14.3081 24.5588 13.6541 22.6472 13.3706 20.6184L18.1694 15.7778L23.4872 16.972L24.6689 20.6096L25.2607 22.4304ZM16.0223 9.14209L16.8679 14.4276L13.2139 18.1135C13.2574 14.796 14.2861 11.7118 16.0223 9.14209ZM26.9717 21.6288L25.3157 16.5322L29.6509 13.3828L33.9861 16.5326L32.3301 21.6288H26.9717ZM46.1234 18.1871L42.4503 14.4152L43.0996 8.83264C44.9783 11.4814 46.093 14.707 46.1234 18.1871ZM41.4432 6.84741L40.6134 13.9808L38.5963 14.4335L35.3308 15.1666L30.6228 11.7462V6.6709L35.7109 3.02417C37.8866 3.88623 39.8352 5.19946 41.4432 6.84741ZM33.4745 2.32031L29.6285 5.07678L25.3409 2.45361C26.7205 2.07715 28.171 1.875 29.6681 1.875C30.978 1.875 32.2524 2.02954 33.4745 2.32031ZM23.0657 3.25928L28.7134 6.71484V11.7462L25.3926 14.1588L24.0057 15.1666L18.6942 13.9742L17.6029 7.15283C19.1282 5.50781 20.9845 4.17444 23.0657 3.25928ZM16.7126 28.4692L21.7711 29.4404L24.3474 33.906C21.3038 32.8634 18.6598 30.9521 16.7126 28.4692ZM26.8853 34.5527L23.4681 28.6296L26.7992 23.5038H32.537L35.868 28.6296L32.4517 34.5524C31.5464 34.7073 30.6166 34.7889 29.6681 34.7889C28.7196 34.7893 27.7902 34.7076 26.8853 34.5527ZM34.9891 33.906L37.564 29.4423L42.603 28.4956C40.6581 30.9657 38.0221 32.8671 34.9891 33.906Z" fill="#119C51"/>
<path d="M12.9115 33.7625L0.274658 46.3997C-0.0915527 46.7659 -0.0915527 47.3595 0.274658 47.7257C0.457764 47.9085 0.697632 48 0.9375 48C1.17737 48 1.41724 47.9085 1.60034 47.7254L14.2375 35.0885C14.6034 34.7223 14.6034 34.1287 14.2375 33.7625C13.8713 33.3966 13.2777 33.3966 12.9115 33.7625Z" fill="#119C51"/>
<path d="M15.5762 45.0948C15.3297 45.0948 15.088 45.1952 14.9137 45.3695C14.7394 45.5438 14.6387 45.7855 14.6387 46.0331C14.6387 46.2795 14.739 46.5205 14.9137 46.6952C15.088 46.8706 15.3297 46.9706 15.5762 46.9706C15.823 46.9706 16.0647 46.8706 16.239 46.6952C16.4133 46.5209 16.5137 46.2795 16.5137 46.0331C16.5137 45.7855 16.4137 45.5438 16.239 45.3695C16.0647 45.1952 15.823 45.0948 15.5762 45.0948Z" fill="#119C51"/>
</g>
<defs>
<clipPath id="clip0">
<rect width="48" height="48" fill="white"/>
</clipPath>
</defs>
</svg>
