<svg width="33" height="33" viewBox="0 0 33 33" fill="none" xmlns="http://www.w3.org/2000/svg">
<circle cx="16.5" cy="16.5" r="16" stroke="#119C51" stroke-opacity="0.65"/>
<path d="M18.4534 18.9685L19.5203 15.6937L16.7323 13.6689L13.9482 15.6937L15.0113 18.9685H18.4534Z" fill="#119C51"/>
<path d="M9.88359 14.5564L9.28005 10.9585C8.18477 12.373 7.52213 14.0742 7.37207 15.8569L9.88359 14.5564Z" fill="#119C51"/>
<path d="M24.1583 11.0752L23.582 14.5563L25.9806 15.7984C25.8223 14.0856 25.1914 12.4505 24.1583 11.0752Z" fill="#119C51"/>
<path d="M14.3887 19.4043L13.3023 16.0634L10.3897 15.1211L7.38365 16.6786H7.33303C7.3297 18.385 7.79579 20.0594 8.68029 21.5187C8.74374 21.4814 8.8173 21.4651 8.89056 21.4719L12.6909 21.7367L14.3887 19.4043Z" fill="#119C51"/>
<path d="M17.0957 10.1211V13.0375L20.1602 15.2609C20.1602 15.2609 20.1602 15.2804 20.1874 15.2882L22.8703 14.416L23.4699 10.783L23.5205 10.3547H23.5634C22.5932 9.30048 21.3944 8.48261 20.0589 7.96387L17.0957 10.1211Z" fill="#119C51"/>
<path d="M9.94618 10.3551L10.0007 10.799L10.5964 14.4164L13.2832 15.2886L13.3066 15.2613L16.371 13.0379V10.1215L13.3689 7.93701C12.0587 8.43596 10.8772 9.22234 9.91113 10.2383C9.93091 10.2743 9.94285 10.3141 9.94618 10.3551Z" fill="#119C51"/>
<path d="M20.9313 22.4533L20.2148 25.3309C21.8037 24.6783 23.1819 23.6005 24.1982 22.2158L20.9313 22.4533Z" fill="#119C51"/>
<path d="M23.0761 15.1211L20.183 16.0595L19.0771 19.4043L20.7749 21.7406L24.5791 21.4758H24.7037C25.5715 20.0264 26.0279 18.3679 26.0238 16.6786V16.6397L23.0761 15.1211Z" fill="#119C51"/>
<path d="M12.539 22.4533L9.15137 22.2158C10.1972 23.6372 11.6242 24.7334 13.2672 25.3776L12.539 22.4533Z" fill="#119C51"/>
<path d="M20.2374 22.2312L18.3956 19.6963H15.0742L13.2324 22.2312L14.0657 25.5799V25.6539C15.8092 26.1666 17.6644 26.1598 19.4042 25.6344L20.2374 22.2312Z" fill="#119C51"/>
<path d="M16.7322 9.48673L19.2126 7.68388C17.5814 7.22477 15.8562 7.21669 14.2207 7.66052L16.7322 9.48673Z" fill="#119C51"/>
</svg>
