<svg width="30" height="30" viewBox="0 0 30 30" fill="none" xmlns="http://www.w3.org/2000/svg">
<circle cx="15" cy="15" r="15" fill="#119C51" fill-opacity="0.1"/>
<path d="M20.9363 17.021C20.6453 16.6535 20.7285 16.49 20.9363 16.1615C20.94 16.1578 23.3422 12.8383 23.5897 11.7125L23.5912 11.7118C23.7143 11.3015 23.5913 11 22.9965 11H21.0285C20.5275 11 20.2965 11.2587 20.1727 11.5483C20.1727 11.5483 19.1707 13.9468 17.7533 15.5015C17.2957 15.9508 17.0843 16.0948 16.8345 16.0948C16.7115 16.0948 16.5203 15.9508 16.5203 15.5405V11.7118C16.5203 11.2197 16.38 11 15.9653 11H12.8708C12.5565 11 12.3698 11.2295 12.3698 11.4433C12.3698 11.9098 13.0785 12.017 13.152 13.3295V16.1773C13.152 16.8013 13.0388 16.916 12.7875 16.916C12.1185 16.916 10.4948 14.5078 9.5325 11.7515C9.33825 11.2167 9.1485 11.0007 8.64375 11.0007H6.675C6.11325 11.0007 6 11.2595 6 11.549C6 12.0605 6.669 14.6038 9.111 17.9638C10.7385 20.2573 13.0305 21.5 15.1155 21.5C16.3688 21.5 16.5218 21.224 16.5218 20.7493C16.5218 18.5578 16.4085 18.3508 17.0363 18.3508C17.3273 18.3508 17.8282 18.4948 18.9982 19.601C20.3355 20.9128 20.5553 21.5 21.3038 21.5H23.2717C23.8328 21.5 24.117 21.224 23.9535 20.6795C23.5793 19.5343 21.0503 17.1785 20.9363 17.021Z" fill="#119C51"/>
</svg>
