<svg width="23" height="23" viewBox="0 0 23 23" fill="none" xmlns="http://www.w3.org/2000/svg">
<path d="M23 13.6562C23 13.0803 22.7709 12.5436 22.3761 12.1478C22.8237 11.6581 23.0518 11.0016 22.9894 10.3183C22.8773 9.10029 21.78 8.14579 20.4901 8.14579H14.5705C14.8637 7.25549 15.3333 5.62348 15.3333 4.31247C15.3333 2.23385 13.5671 0.479156 12.4583 0.479156C11.4636 0.479156 10.7515 1.03978 10.7218 1.06278C10.6078 1.15384 10.5416 1.29184 10.5416 1.43747V4.68717L7.78069 10.6662L7.66664 10.7247V10.5416C7.66664 10.2771 7.45195 10.0624 7.18745 10.0624H2.39582C1.07431 10.0625 0 11.1368 0 12.4583V20.125C0 21.4465 1.07431 22.5208 2.39582 22.5208H5.27082C6.30676 22.5208 7.19226 21.8595 7.52576 20.9367C8.32312 21.3468 9.39644 21.5625 10.0625 21.5625H18.8591C19.9027 21.5625 20.816 20.859 21.0306 19.8892C21.1408 19.389 21.0766 18.8858 20.8581 18.4488C21.5654 18.0933 22.0417 17.3621 22.0417 16.5312C22.0417 16.192 21.9641 15.8671 21.8174 15.5738C22.5247 15.2174 23 14.4871 23 13.6562ZM20.9789 14.8388C20.7939 14.8609 20.6377 14.9864 20.5783 15.1637C20.5199 15.341 20.5687 15.5355 20.7048 15.6639C20.9482 15.893 21.0834 16.2015 21.0834 16.5312C21.0834 17.1359 20.6262 17.6439 20.0215 17.7138C19.8366 17.7359 19.6804 17.8614 19.621 18.0387C19.5625 18.216 19.6114 18.4105 19.7475 18.5389C20.0628 18.836 20.1893 19.2529 20.0944 19.6822C19.9765 20.217 19.4571 20.6042 18.8591 20.6042H10.0625C9.28432 20.6042 7.97907 20.239 7.52675 19.7857C7.38969 19.6497 7.18269 19.6094 7.00444 19.6822C6.82525 19.756 6.70832 19.9314 6.70832 20.125C6.70832 20.9175 6.06337 21.5625 5.27082 21.5625H2.39582C1.60326 21.5625 0.958318 20.9175 0.958318 20.125V12.4583C0.958318 11.6657 1.60326 11.0208 2.39582 11.0208H6.70832V11.5C6.70832 11.6658 6.79457 11.82 6.93639 11.9082C7.07632 11.9925 7.25264 12.0012 7.40214 11.9284L8.36045 11.4492C8.45726 11.4012 8.53489 11.3207 8.58089 11.222L11.4559 4.99286C11.4846 4.92961 11.5 4.86061 11.5 4.79161V1.69717C11.6993 1.58697 12.0453 1.43747 12.4583 1.43747C12.9835 1.43747 14.375 2.74272 14.375 4.31247C14.375 5.99916 13.4569 8.43042 13.4483 8.45441C13.3927 8.60103 13.4119 8.76684 13.501 8.89716C13.5911 9.02653 13.7387 9.10416 13.8958 9.10416H20.4901C21.2894 9.10416 21.9679 9.67628 22.0349 10.4065C22.0858 10.9528 21.8231 11.4722 21.3526 11.7626C21.206 11.8527 21.1188 12.0156 21.1255 12.189C21.1322 12.3625 21.2319 12.5177 21.3852 12.5973C21.7906 12.8033 22.0416 13.2097 22.0416 13.6562C22.0417 14.2609 21.5846 14.7689 20.9789 14.8388Z" fill="#7C7C7C"/>
<path d="M7.18621 11.0208C6.92171 11.0208 6.70703 11.2355 6.70703 11.5V20.125C6.70703 20.3895 6.92171 20.6042 7.18621 20.6042C7.45071 20.6042 7.6654 20.3895 7.6654 20.125V11.5C7.6654 11.2355 7.45071 11.0208 7.18621 11.0208Z" fill="#7C7C7C"/>
</svg>
