<svg width="328" height="57" viewBox="0 0 328 57" fill="none" xmlns="http://www.w3.org/2000/svg">
<path d="M66.808 22.5448L62.2388 30.4553L66.808 38.3659L71.3806 30.4553L66.808 22.5448Z" fill="#69A530"/>
<path d="M48.2421 38.3658L43.6729 30.4553L48.2421 22.5448H57.3872L62.0961 14.3909H43.53L34.2485 30.4553L43.53 46.5197H62.0961L57.3872 38.3658H48.2421Z" fill="#2F2F2F"/>
<path d="M85.9426 23.2196C89.018 23.2196 90.8366 24.4526 91.629 26.7076C91.8173 27.2106 91.6907 27.4377 91.1906 27.6291L90.0409 28.025C89.5376 28.171 89.3297 28.1093 89.1414 27.5869C88.6802 26.3118 87.6767 25.6661 85.9426 25.6661C83.7895 25.6661 82.5976 26.7109 82.5976 28.6317V33.2489C82.5976 35.1698 83.7895 36.2373 85.9426 36.2373C87.6995 36.2373 88.6835 35.5689 89.1414 34.2937C89.3492 33.7713 89.5603 33.6675 90.0604 33.8557L91.1906 34.2515C91.6907 34.4397 91.8173 34.6668 91.6517 35.1698C90.8561 37.4281 89.0375 38.6805 85.9426 38.6805C82.0943 38.6805 79.9639 36.5909 79.9639 33.2294V28.6544C79.9606 25.3092 82.0943 23.2196 85.9426 23.2196Z" fill="#2F2F2F"/>
<path d="M105.103 24.2417V37.6552C105.103 38.1776 104.934 38.3658 104.392 38.3658H103.2C102.658 38.3658 102.489 38.1776 102.489 37.6552V25.9744H96.4028V37.6552C96.4028 38.1776 96.2144 38.3658 95.6916 38.3658H94.4997C93.9574 38.3658 93.769 38.1776 93.769 37.6552V24.2417C93.769 23.7193 93.9574 23.5311 94.4997 23.5311H104.392C104.937 23.5344 105.103 23.7226 105.103 24.2417Z" fill="#2F2F2F"/>
<path d="M113.579 23.2196C117.405 23.2196 119.538 25.3092 119.538 28.6739V33.2294C119.538 36.5942 117.405 38.6805 113.579 38.6805C109.731 38.6805 107.601 36.5909 107.601 33.2294V28.6739C107.601 25.3092 109.734 23.2196 113.579 23.2196ZM113.579 25.6628C111.426 25.6628 110.234 26.7076 110.234 28.6512V33.2489C110.234 35.1925 111.426 36.2373 113.579 36.2373C115.713 36.2373 116.924 35.1925 116.924 33.2489V28.6512C116.924 26.7076 115.713 25.6628 113.579 25.6628Z" fill="#2F2F2F"/>
<path d="M133.223 28.3819C133.223 31.4125 131.32 33.2068 128.29 33.2068H124.653V37.6585C124.653 38.1809 124.464 38.3691 123.942 38.3691H122.75C122.204 38.3691 122.019 38.1809 122.019 37.6585V24.2417C122.019 23.7193 122.207 23.5311 122.75 23.5311H128.29C131.3 23.5344 133.223 25.3514 133.223 28.3819ZM130.463 28.3819C130.463 26.8796 129.563 25.9776 128.037 25.9776H124.65V30.7635H128.037C129.563 30.7635 130.463 29.8842 130.463 28.3819Z" fill="#2F2F2F"/>
<path d="M145.337 24.2417V25.267C145.337 25.7894 145.148 25.9776 144.626 25.9776H141.031V37.6585C141.031 38.1809 140.842 38.3691 140.319 38.3691H139.108C138.585 38.3691 138.397 38.1809 138.397 37.6585V25.9776H134.799C134.253 25.9776 134.087 25.7894 134.087 25.267V24.2417C134.087 23.7193 134.253 23.5311 134.799 23.5311H144.626C145.148 23.5344 145.337 23.7226 145.337 24.2417Z" fill="#2F2F2F"/>
<path d="M158.811 24.2417V37.6552C158.811 38.1776 158.645 38.3658 158.099 38.3658H156.908C156.365 38.3658 156.196 38.1776 156.196 37.6552V31.5325C156.196 29.2775 156.323 28.5863 156.7 26.7499H156.615C155.989 28.3365 155.592 29.0471 154.524 30.7181L149.734 38.0089C149.568 38.2815 149.38 38.3658 149.023 38.3658H147.811C147.266 38.3658 147.081 38.1776 147.081 37.6552V24.2417C147.081 23.7193 147.269 23.5311 147.811 23.5311H149.003C149.526 23.5311 149.714 23.7193 149.714 24.2417V30.3028C149.714 32.5384 149.588 33.2911 149.211 35.1503H149.295C149.922 33.541 150.383 32.6844 151.471 31.0134L156.177 23.8686C156.323 23.6609 156.492 23.5344 156.869 23.5344H158.103C158.642 23.5344 158.811 23.7226 158.811 24.2417Z" fill="#2F2F2F"/>
<path d="M172.535 27.441C172.535 28.9433 172.031 29.9491 170.947 30.598V30.6824C172.304 31.1626 173.08 32.4151 173.08 34.297C173.08 36.9317 171.116 38.3723 168.375 38.3723H162.458C161.915 38.3723 161.727 38.1841 161.727 37.6617V24.2417C161.727 23.7193 161.915 23.5311 162.458 23.5311H168.251C170.947 23.5344 172.535 24.9328 172.535 27.441ZM167.936 25.9776H164.361V29.6571H167.936C169.17 29.6571 169.859 29.073 169.859 27.8174C169.859 26.5844 169.19 25.9776 167.936 25.9776ZM168.313 32.0354H164.361V35.9193H168.313C169.609 35.9193 170.301 35.2736 170.301 33.9985C170.297 32.7266 169.609 32.0354 168.313 32.0354Z" fill="#2F2F2F"/>
<path d="M186.782 24.2417V37.6552C186.782 38.1776 186.593 38.3658 186.051 38.3658H184.859C184.336 38.3658 184.148 38.1776 184.148 37.6552V32.0776H177.958V37.6552C177.958 38.1776 177.77 38.3658 177.247 38.3658H176.055C175.513 38.3658 175.324 38.1776 175.324 37.6552V24.2417C175.324 23.7193 175.513 23.5311 176.055 23.5311H177.247C177.77 23.5311 177.958 23.7193 177.958 24.2417V29.6311H184.148V24.2417C184.148 23.7193 184.336 23.5311 184.859 23.5311H186.051C186.593 23.5344 186.782 23.7226 186.782 24.2417Z" fill="#2F2F2F"/>
<path d="M189.675 37.6585V24.2417C189.675 23.7193 189.863 23.5311 190.405 23.5311H191.597C192.12 23.5311 192.309 23.7193 192.309 24.2417V28.6934H195.946C198.979 28.6934 200.882 30.491 200.882 33.5183C200.882 36.5455 198.959 38.3658 195.946 38.3658H190.405C189.863 38.3658 189.675 38.1809 189.675 37.6585ZM192.312 35.9226H195.699C197.225 35.9226 198.125 35.0238 198.125 33.5215C198.125 32.0192 197.225 31.1399 195.699 31.1399H192.312V35.9226ZM203.811 23.5344H205.003C205.545 23.5344 205.714 23.7226 205.714 24.245V37.6585C205.714 38.1809 205.545 38.3691 205.003 38.3691H203.811C203.269 38.3691 203.1 38.1809 203.1 37.6585V24.2417C203.1 23.7226 203.269 23.5344 203.811 23.5344Z" fill="#2F2F2F"/>
<path d="M220.342 24.2417V37.6552C220.342 38.1776 220.176 38.3658 219.63 38.3658H218.439C217.893 38.3658 217.727 38.1776 217.727 37.6552V31.5325C217.727 29.2774 217.854 28.5863 218.231 26.7498H218.146C217.52 28.3365 217.12 29.047 216.055 30.7181L211.265 38.0089C211.099 38.2814 210.908 38.3658 210.554 38.3658H209.339C208.797 38.3658 208.608 38.1776 208.608 37.6552V24.2417C208.608 23.7193 208.797 23.5311 209.339 23.5311H210.531C211.054 23.5311 211.242 23.7193 211.242 24.2417V30.3027C211.242 32.5383 211.115 33.2911 210.739 35.1503H210.823C211.45 33.5409 211.911 32.6843 212.999 31.0133L217.705 23.8685C217.851 23.6609 218.016 23.5343 218.393 23.5343H219.627C220.176 23.5343 220.342 23.7225 220.342 24.2417ZM214.548 22.4895C212.772 22.4895 211.453 21.6751 210.953 20.2734C210.826 19.9165 210.911 19.7705 211.265 19.6472L212.187 19.313C212.583 19.2059 212.772 19.2514 212.918 19.5434C213.171 20.2734 213.756 20.6725 214.548 20.6725C215.344 20.6725 215.928 20.2767 216.178 19.5434C216.325 19.2514 216.471 19.2092 216.786 19.2903L217.854 19.6472C218.231 19.7932 218.293 19.9198 218.189 20.2734C217.646 21.6751 216.328 22.4895 214.548 22.4895Z" fill="#2F2F2F"/>
<path d="M239.132 23.8036V38.0964C239.132 38.3041 239.047 38.3657 238.862 38.3657H238.424C238.216 38.3657 238.151 38.3041 238.151 38.0964V28.8621C238.151 27.3371 238.213 26.2501 238.317 24.8516H238.274C237.521 26.1041 236.852 27.1099 235.975 28.3819L229.116 38.2003C229.032 38.3463 228.947 38.3657 228.801 38.3657H228.386C228.178 38.3657 228.113 38.3041 228.113 38.0964V23.8036C228.113 23.596 228.175 23.5343 228.386 23.5343H228.824C229.012 23.5343 229.074 23.596 229.074 23.8036V32.7687C229.074 34.3553 229.055 35.5461 228.928 37.0516H228.97C229.763 35.7148 230.539 34.5857 231.458 33.2262L238.128 23.6803C238.17 23.6187 238.252 23.5343 238.42 23.5343H238.859C239.047 23.5343 239.132 23.596 239.132 23.8036Z" fill="#2F2F2F"/>
<path d="M253.336 23.8036V38.0964C253.336 38.3041 253.274 38.3657 253.063 38.3657H252.625C252.437 38.3657 252.375 38.3041 252.375 38.0964V31.3053H243.529V38.0964C243.529 38.3041 243.467 38.3657 243.279 38.3657H242.84C242.632 38.3657 242.567 38.3041 242.567 38.0964V23.8036C242.567 23.596 242.629 23.5343 242.84 23.5343H243.279C243.467 23.5343 243.529 23.596 243.529 23.8036V30.4065H252.375V23.8036C252.375 23.596 252.437 23.5343 252.625 23.5343H253.063C253.274 23.5343 253.336 23.596 253.336 23.8036Z" fill="#2F2F2F"/>
<path d="M265.911 23.8036V24.18C265.911 24.3682 265.849 24.4331 265.638 24.4331H261.101V38.0964C261.101 38.3041 261.039 38.3657 260.851 38.3657H260.413C260.205 38.3657 260.14 38.3041 260.14 38.0964V24.4331H255.603C255.395 24.4331 255.333 24.3714 255.333 24.18V23.8036C255.333 23.596 255.395 23.5343 255.603 23.5343H265.641C265.849 23.5343 265.911 23.596 265.911 23.8036Z" fill="#2F2F2F"/>
<path d="M276.978 23.8036V24.18C276.978 24.3682 276.916 24.4331 276.705 24.4331H268.866V30.4065H275.809C275.997 30.4065 276.062 30.4682 276.062 30.6564V31.0328C276.062 31.2404 276 31.3021 275.809 31.3021H268.866V37.467H277.001C277.189 37.467 277.273 37.5286 277.273 37.72V38.0964C277.273 38.3041 277.189 38.3657 277.001 38.3657H268.177C267.969 38.3657 267.904 38.3041 267.904 38.0964V23.8036C267.904 23.596 267.966 23.5343 268.177 23.5343H276.708C276.916 23.5343 276.978 23.596 276.978 23.8036Z" fill="#2F2F2F"/>
<path d="M290.348 28.0866C290.348 30.9062 288.572 32.5999 285.727 32.5999H280.794V38.0932C280.794 38.3008 280.732 38.3625 280.544 38.3625H280.105C279.897 38.3625 279.833 38.3008 279.833 38.0932V23.8036C279.833 23.596 279.894 23.5343 280.105 23.5343H285.73C288.549 23.5343 290.348 25.2248 290.348 28.0866ZM289.344 28.0866C289.344 25.7894 287.922 24.4298 285.642 24.4298H280.791V31.7012H285.642C287.922 31.7044 289.344 30.3644 289.344 28.0866Z" fill="#2F2F2F"/>
<path d="M301.835 23.8036V24.18C301.835 24.3682 301.773 24.4331 301.562 24.4331H293.723V30.4065H300.666C300.854 30.4065 300.919 30.4682 300.919 30.6564V31.0328C300.919 31.2404 300.857 31.3021 300.666 31.3021H293.723V37.467H301.858C302.046 37.467 302.13 37.5286 302.13 37.72V38.0964C302.13 38.3041 302.046 38.3657 301.858 38.3657H293.034C292.826 38.3657 292.761 38.3041 292.761 38.0964V23.8036C292.761 23.596 292.823 23.5343 293.034 23.5343H301.565C301.77 23.5343 301.835 23.596 301.835 23.8036Z" fill="#2F2F2F"/>
<path d="M309.765 23.2423C313.006 23.2423 314.552 24.4948 315.263 26.8764C315.325 27.084 315.263 27.1457 315.075 27.23L314.698 27.3566C314.49 27.3987 314.406 27.376 314.341 27.1911C313.714 25.121 312.48 24.1411 309.762 24.1411C306.667 24.1411 305.098 25.7277 305.098 28.3624V33.5215C305.098 36.1334 306.729 37.7623 309.762 37.7623C312.565 37.7623 313.756 36.6753 314.383 34.6084C314.468 34.4202 314.549 34.3781 314.74 34.4397L315.137 34.5857C315.325 34.6474 315.367 34.7317 315.302 34.9199C314.591 37.3015 313.087 38.6578 309.762 38.6578C306.125 38.6578 304.137 36.6948 304.137 33.4987V28.3819C304.14 25.2053 306.066 23.2423 309.765 23.2423Z" fill="#2F2F2F"/>
</svg>
